HIERARCHY
ROOT hip
{
	OFFSET 0.000000 0.000000 0.000000 
	CHANNELS 6 Xposition Yposition Zposition Xrotation Zrotation Yrotation
	JOINT abdomen
	{
		OFFSET 0.000000 3.402643 0.000000 
		CHANNELS 3 Xrotation Zrotation Yrotation
		JOINT chest
		{
			OFFSET 0.000000 8.438565 -0.680529 
			CHANNELS 3 Xrotation Zrotation Yrotation
			JOINT neck
			{
				OFFSET 0.000000 9.885400 -0.272212 
				CHANNELS 3 Xrotation Zrotation Yrotation
				JOINT head
				{
					OFFSET 0.000000 3.130431 0.000000 
					CHANNELS 3 Xrotation Zrotation Yrotation
					End Site
					{
						OFFSET 0.000000 3.039250 0.000000 
					}
				}
			}
			JOINT lCollar
			{
				OFFSET 3.238290 6.669187 -0.816635 
				CHANNELS 3 Yrotation Zrotation Xrotation
				JOINT lShldr
				{
					OFFSET 2.515050 0.000000 0.000000 
					CHANNELS 3 Zrotation Yrotation Xrotation
					JOINT lForeArm
					{
						OFFSET 11.517700 0.000000 0.000000 
						CHANNELS 3 Yrotation Zrotation Xrotation
						JOINT lHand
						{
							OFFSET 9.026700 0.000000 0.000000 
							CHANNELS 3 Zrotation Yrotation Xrotation
							End Site
							{
								OFFSET 4.028470 0.000000 0.000000 
							}
						}
					}
				}
			}
			JOINT rCollar
			{
				OFFSET -3.238290 6.669187 -0.816635 
				CHANNELS 3 Yrotation Zrotation Xrotation
				JOINT rShldr
				{
					OFFSET -2.515050 0.000000 0.000000 
					CHANNELS 3 Zrotation Yrotation Xrotation
					JOINT rForeArm
					{
						OFFSET -11.517700 0.000000 0.000000 
						CHANNELS 3 Yrotation Zrotation Xrotation
						JOINT rHand
						{
							OFFSET -9.026700 0.000000 0.000000 
							CHANNELS 3 Zrotation Yrotation Xrotation
							End Site
							{
								OFFSET -4.028470 0.000000 0.000000 
							}
						}
					}
				}
			}
		}
	}
	JOINT lThigh
	{
		OFFSET 4.983750 -1.633274 1.361059 
		CHANNELS 3 Xrotation Zrotation Yrotation
		JOINT lShin
		{
			OFFSET -2.041588 -20.007561 0.000000 
			CHANNELS 3 Xrotation Zrotation Yrotation
			JOINT lFoot
			{
				OFFSET 0.000000 -19.190928 -1.224953 
				CHANNELS 3 Xrotation Yrotation Zrotation
				End Site
				{
					OFFSET 0.000000 -2.449906 4.627600 
				}
			}
		}
	}
	JOINT rThigh
	{
		OFFSET -4.983750 -1.633274 1.361059 
		CHANNELS 3 Xrotation Zrotation Yrotation
		JOINT rShin
		{
			OFFSET 2.041588 -20.007561 0.000000 
			CHANNELS 3 Xrotation Zrotation Yrotation
			JOINT rFoot
			{
				OFFSET 0.000000 -19.190928 -1.224953 
				CHANNELS 3 Xrotation Yrotation Zrotation
				End Site
				{
					OFFSET 0.000000 -2.449906 4.627600 
				}
			}
		}
	}
}
MOTION
Frames: 16
Frame Time: 0.022438
0.000000 39.585087 0.000000 -13.444243 2.670574 11.438685 24.533331 3.659625 -1.486687 5.625748 1.395656 -2.978882 1.003773 6.044799 -0.192742 15.755507 -5.251711 7.178163 -18.568695 -16.051653 -0.858053 -67.126198 8.817401 -27.919329 -61.892414 -5.000000 2.797405 -8.918543 -24.924732 -45.000000 18.768671 12.241816 -0.640148 56.032837 8.254397 2.763049 84.502060 5.000000 3.903579 11.303709 -24.238859 -19.467508 7.742781 17.575691 4.911386 17.876015 -3.048315 -1.057986 -1.453640 6.333403 -8.168379 19.552439 -5.829108 -10.339104 10.269054 4.039332 0.807064 -13.460577 -17.947273 3.616364 
-0.540808 39.579750 -0.417952 -13.381708 2.360525 10.712437 25.156199 3.743443 -1.481733 5.668412 1.493156 -3.076738 1.106741 6.352861 -0.179352 15.358840 -5.532226 7.976609 -18.928347 -15.944328 -0.852497 -66.803055 8.008465 -26.544054 -61.963230 -5.000000 1.965876 -10.015642 -24.761202 -45.000000 18.444189 12.046775 -0.630064 56.787811 8.479423 2.994413 84.513206 5.000000 3.783954 11.464417 -24.620279 -18.917906 6.551987 18.221579 5.407512 18.786367 -2.746159 -0.947060 -0.000266 6.086253 -8.124484 17.864752 -5.438743 -9.419497 11.831671 4.264188 1.028983 -13.872021 -17.937304 2.830804 
-1.124939 39.562515 -0.902394 -13.180715 2.039759 9.860070 25.761837 3.745862 -1.486937 5.690520 1.629702 -3.203918 1.279553 6.672028 -0.157788 14.856134 -5.827228 8.942348 -19.287859 -15.827250 -0.846435 -66.500885 7.152005 -25.128214 -62.052166 -3.500586 1.077630 -10.992694 -24.561506 -45.000000 18.168463 11.841982 -0.619468 57.561230 8.696540 3.212084 84.568459 5.000000 3.653175 11.551522 -24.965574 -18.349529 5.338695 18.870043 6.147176 19.314301 -2.422895 -0.843985 1.754604 5.825748 -8.087995 16.039600 -5.077294 -8.473938 13.254595 4.605096 1.248218 -14.204166 -17.745703 1.933810 
-1.725103 39.529640 -1.446664 -12.863652 1.669122 8.900357 26.320230 3.746722 -1.460639 5.702335 1.785771 -3.379959 1.512641 6.992639 -0.127801 14.262652 -6.115106 10.116236 -19.617794 -15.690678 -0.836720 -66.241692 6.271841 -23.671429 -62.163342 -1.741584 0.139533 -11.774440 -24.381107 -45.000000 17.950844 11.588428 -0.606338 58.375660 8.893530 3.438828 84.659187 5.000000 3.516040 11.497986 -25.229052 -17.753027 4.166302 19.551891 7.187842 19.442234 -2.090895 -0.732933 3.707481 5.641303 -8.073814 14.115108 -4.695632 -7.561521 14.496156 5.081580 1.495162 -14.437024 -17.474752 0.907983 
-2.308886 39.478970 -2.041698 -12.476809 1.160915 7.843540 26.839712 3.894809 -1.350052 5.714075 1.863647 -3.584956 1.766978 7.391935 -0.098779 13.690799 -6.407138 11.321575 -20.014635 -15.456572 -0.824631 -66.090233 5.426722 -22.248171 -62.295464 0.030406 -0.828283 -12.511613 -24.287411 -45.000000 17.693815 11.295865 -0.589260 59.229767 9.134371 3.728904 84.692337 5.000000 3.379393 11.132487 -25.425344 -17.026434 3.073529 20.286144 8.594794 19.306770 -1.680743 -0.585427 5.521805 5.522094 -8.194278 12.178304 -4.177176 -6.700787 15.456583 5.590509 1.760838 -14.285178 -17.088858 -0.068631 
-2.864763 39.415634 -2.672087 -12.054214 0.562673 6.582385 27.358612 4.157624 -1.233396 5.668146 1.941552 -3.712165 2.069792 7.664241 -0.060348 13.178470 -6.544493 12.769569 -20.430353 -15.173709 -0.810008 -66.094444 4.681472 -21.031364 -62.442291 1.559799 -1.679066 -12.920686 -24.182964 -45.000000 17.503843 10.866772 -0.567063 60.146282 9.237169 3.926881 84.792648 5.000000 3.300565 10.906403 -25.633461 -16.313654 2.206364 20.975719 10.297269 19.296816 -1.338755 -0.435503 6.416533 5.691039 -8.416265 10.339470 -3.623121 -5.890127 16.078447 6.138471 2.009318 -13.882533 -16.470980 -0.958736 
-3.369626 39.350899 -3.332204 -11.549211 0.038903 5.175786 27.752047 4.351533 -1.108352 5.679461 1.990062 -3.917470 2.434437 7.987709 -0.008740 12.633385 -6.739989 14.289902 -20.845453 -14.842087 -0.790341 -66.207794 3.999784 -20.004471 -62.607841 2.961770 -2.355554 -13.267718 -24.066641 -45.000000 17.274990 10.437677 -0.543063 61.052460 9.372509 4.054173 84.886574 5.000000 3.145463 10.608789 -25.798752 -15.532372 1.395711 21.374094 12.040050 20.137434 -0.909278 -0.254502 5.741476 5.870599 -8.712845 8.513649 -3.163791 -5.132674 16.499527 6.647560 2.268063 -13.298214 -15.753366 -1.724900 
-3.817055 39.303658 -4.014327 -11.041068 -0.243637 3.681649 28.114182 4.284198 -1.145747 5.681755 2.038590 -4.142330 2.913084 8.394177 0.069489 12.065509 -6.952127 15.920331 -21.260948 -14.529963 -0.774209 -66.309021 3.460377 -19.165726 -62.784397 4.148636 -2.922542 -13.523977 -23.957476 -45.000000 17.040247 10.220269 -0.541161 61.746838 9.460598 4.138948 85.030922 5.000000 2.979740 10.327008 -25.967083 -14.746983 0.574784 21.323406 13.599605 22.271708 -0.333388 -0.009585 3.843845 5.808921 -9.270662 6.800751 -2.907966 -4.432175 16.724554 7.057786 2.420222 -12.456497 -14.839534 -2.237012 
-4.198089 39.290565 -4.710484 -10.554248 -0.204946 2.060533 28.472128 3.894875 -1.423968 5.653584 2.126160 -4.328152 3.474529 8.861410 0.158043 11.533794 -7.179325 17.631813 -21.667717 -14.286108 -0.759175 -66.342171 3.054889 -18.489786 -62.960491 5.000000 -3.417924 -13.704626 -23.867294 -45.000000 16.767849 10.327587 -0.548469 62.132679 9.514630 4.193895 85.225021 5.000000 2.823949 10.118361 -26.125643 -13.996365 -0.236280 20.752710 14.814047 25.943815 0.359174 0.311062 1.042066 5.570059 -10.084035 5.212257 -2.909447 -3.713984 16.760159 7.300823 2.513770 -11.416051 -13.928171 -2.540053 
-4.505261 39.314445 -5.411463 -10.126254 0.146483 0.273462 28.782291 3.158530 -1.926390 5.661037 2.242876 -4.484657 4.033244 9.390814 0.269531 11.083871 -7.474147 19.429420 -22.027037 -14.139773 -0.751611 -66.264816 2.716786 -17.935064 -63.114895 5.000000 -3.861029 -13.979620 -23.800331 -45.000000 16.410896 10.766494 -0.571215 62.196541 9.592649 4.238013 85.407784 5.000000 2.669190 10.043545 -26.185038 -13.288022 -1.006914 19.616690 15.567222 31.379242 1.100409 0.945627 -2.292708 5.061277 -11.058219 3.732777 -3.245908 -2.847816 16.607744 7.429352 2.552785 -10.075260 -13.005889 -2.509655 
-4.736523 39.339779 -6.108526 -9.796125 0.380701 -1.650419 29.067616 2.542317 -2.410751 5.657427 2.437751 -4.729122 4.703191 9.834633 0.402147 10.571591 -7.834877 21.419996 -22.319469 -14.100720 -0.749581 -66.175644 2.511399 -17.603434 -63.312412 5.000000 -4.168078 -14.331446 -23.734180 -45.000000 16.103683 11.273653 -0.599363 62.098515 9.635329 4.269375 85.576714 5.000000 2.585406 10.188091 -26.094418 -12.765411 -1.544432 18.331291 15.924524 38.004211 1.626287 1.706663 -5.334651 4.332220 -11.996376 2.438322 -3.452421 -1.836962 16.231831 7.428247 2.533566 -8.664349 -12.007624 -2.160334 
-4.882496 39.340706 -6.792435 -9.543538 0.331298 -3.808643 29.285023 2.231185 -2.621289 5.697464 2.651892 -5.003259 5.287250 10.097416 0.513443 10.136307 -8.190261 23.446516 -22.572319 -14.022666 -0.745540 -66.250641 2.321267 -17.464523 -63.563866 5.000000 -4.340245 -14.722556 -23.622240 -45.000000 15.766238 11.673543 -0.620088 62.010468 9.703976 4.332500 85.693924 5.000000 2.432100 10.470821 -25.819426 -12.329572 -1.553304 17.007725 16.259634 44.684307 1.800526 2.222868 -7.904893 3.652739 -12.857972 1.237122 -3.371733 -0.453613 15.692760 7.381950 2.441779 -7.222665 -10.968300 -1.635282 
-4.954362 39.320847 -7.471234 -9.304167 0.067969 -6.123042 29.442015 2.124892 -2.619215 5.754079 2.856058 -5.287152 5.821773 10.349047 0.616726 9.730334 -8.639002 25.444731 -22.834808 -13.934857 -0.740993 -66.356224 2.155305 -17.418661 -63.870712 5.000000 -4.469111 -15.135368 -23.463926 -45.000000 15.350269 12.024686 -0.638265 61.934101 9.794580 4.442055 85.800850 5.000000 2.325427 11.010369 -25.373831 -12.168444 -1.045568 15.602517 16.540535 50.692635 1.574359 2.385524 -9.924009 2.956968 -13.902153 0.117027 -3.078089 1.169328 15.055682 7.329541 2.370171 -5.822210 -10.048049 -0.977365 
-4.965830 39.279175 -8.159441 -9.038500 -0.289717 -8.545059 29.548243 2.142295 -2.522066 5.819478 3.069918 -5.532555 6.306581 10.589538 0.710214 9.333086 -9.112516 27.434858 -23.087542 -13.847050 -0.736445 -66.415985 1.999016 -17.383718 -64.212112 5.000000 -4.595716 -15.502211 -23.240837 -45.000000 14.895824 12.414841 -0.660534 61.809696 9.929575 4.597462 85.847321 5.000000 2.310249 11.807212 -24.726900 -12.318703 -0.050621 13.977324 16.735029 55.476768 0.996944 1.996410 -11.305419 2.227496 -15.242644 -0.984496 -2.680768 2.996085 14.327298 7.302134 2.244365 -4.549101 -9.314273 -0.183213 
-4.928873 39.206203 -8.874921 -8.734370 -0.632676 -11.006581 29.574900 2.143861 -2.444138 5.912275 3.352137 -5.787371 6.714562 10.679502 0.787607 8.932280 -9.432026 29.449562 -23.233118 -13.778767 -0.732910 -66.379852 1.807667 -17.277237 -64.617569 5.000000 -4.703053 -15.754053 -22.962730 -45.000000 14.520614 12.882997 -0.684765 61.541290 10.100702 4.791566 85.744987 5.000000 2.310443 12.756873 -23.802191 -12.610562 1.278103 12.048207 16.762793 58.655090 0.214462 0.756342 -11.855339 1.084156 -16.954260 -2.215553 -2.303675 4.922591 13.702196 7.321588 2.084942 -3.474478 -8.645427 0.692489 
-4.841939 39.097263 -9.626036 -8.447667 -0.940442 -13.410050 29.635456 2.121503 -2.248028 5.971035 3.624234 -6.052472 7.168888 10.870208 0.880725 8.495532 -9.915797 31.300131 -23.457079 -13.729971 -0.730377 -66.207253 1.612466 -17.047220 -65.007736 5.000000 -4.770172 -16.051540 -22.780491 -45.000000 14.137114 13.448671 -0.716252 61.203575 10.243142 5.026606 85.622154 5.000000 2.360213 13.968269 -22.696568 -13.326315 2.730135 9.884635 16.371319 59.929310 -0.704125 -1.127981 -11.263509 -0.794583 -18.801716 -3.541224 -1.932156 6.783203 13.326505 7.416943 2.113422 -2.571618 -8.130458 1.516791 
